<?xml version="1.0" encoding="UTF-8"?>
<svg version="1.1" xmlns="http://www.w3.org/2000/svg" width="2250" height="2250">
<path d="M0 0 C1.17033037 -0.00290688 2.34066073 -0.00581376 3.54645565 -0.00880873 C6.79633971 -0.01485169 10.04607373 -0.01193816 13.29595199 -0.00525283 C16.83138555 -0.00017976 20.36680089 -0.00669921 23.90223187 -0.01173949 C30.09954491 -0.01896623 36.29682311 -0.01874165 42.49413776 -0.01364517 C51.71070725 -0.00608641 60.92724729 -0.00994472 70.14381657 -0.01606179 C86.60910683 -0.0266026 103.07438159 -0.0256762 119.53967333 -0.01990396 C133.96055833 -0.01487339 148.38143764 -0.01355915 162.80232334 -0.01594925 C163.75880724 -0.01610202 164.71529114 -0.01625479 165.7007594 -0.01641219 C169.58362247 -0.01703488 173.46648554 -0.01767168 177.34934861 -0.01833172 C213.79714179 -0.02445341 250.24492511 -0.01889863 286.69271678 -0.00813792 C319.03848522 0.00133921 351.38423791 0.00051659 383.73000622 -0.00905991 C420.08234228 -0.01978667 456.43466961 -0.02400483 492.78700703 -0.01783538 C496.66869938 -0.01719398 500.55039173 -0.0165683 504.43208408 -0.01594925 C505.38782887 -0.01579109 506.34357365 -0.01563294 507.32828039 -0.01546999 C521.7230741 -0.01320082 536.11786147 -0.01584511 550.5126543 -0.02090836 C566.90500137 -0.02664553 583.29733052 -0.02515836 599.68967537 -0.01434687 C608.8491205 -0.00850401 618.00852676 -0.00804746 627.16797082 -0.01563922 C633.3063403 -0.02016269 639.44467897 -0.01726389 645.58304393 -0.00862968 C649.06757187 -0.00392573 652.55202331 -0.00213075 656.03654853 -0.00944164 C740.14252163 -0.14699789 820.05064963 24.43710583 883.38845348 81.25168228 C883.90456188 81.7113942 884.42067028 82.17110611 884.95241833 82.64474869 C895.38229422 91.95796381 905.48478971 101.52345613 914.18923473 112.49386978 C916.46381765 115.34618868 918.82715341 118.10661988 921.20095348 120.87668228 C967.7301487 176.76933784 991.55857133 250.16464613 991.53371716 322.40329361 C991.53672016 323.85098734 991.54012524 325.29868028 991.54389477 326.74637222 C991.55262756 330.63347375 991.55506843 334.52055319 991.55571055 338.40766358 C991.55642772 340.85241876 991.55857455 343.29716855 991.56120777 345.74192238 C991.57042903 354.31768898 991.57454712 362.89344018 991.57375622 371.46921158 C991.57315779 379.38577079 991.58367168 387.30226134 991.59949988 395.21880323 C991.61270802 402.07635872 991.61793456 408.93389215 991.61730081 415.79146022 C991.61704948 419.85986328 991.61969254 423.92820532 991.63047886 427.99659538 C991.68928068 451.83046086 991.34394845 475.64547109 987.20095348 499.18918228 C986.98592175 500.4316774 986.77089001 501.67417252 986.54934216 502.954319 C976.11480027 560.96816353 950.09738066 613.92848322 911.38845348 658.25168228 C910.69880505 659.05347916 910.00915661 659.85527603 909.29860973 660.68136978 C898.64412608 672.82870815 887.15501079 684.34009349 874.38845348 694.25168228 C873.26219501 695.17565325 872.13866777 696.1029598 871.01735973 697.03293228 C856.49240832 709.01269654 840.7495962 718.98279554 824.38845348 728.25168228 C823.80128551 728.59118912 823.21411755 728.93069595 822.60915661 729.28049088 C777.28194199 755.40983882 723.10596751 767.47921707 671.12676525 767.3719368 C669.53075896 767.37237388 667.93475274 767.37325131 666.33874691 767.37452596 C661.99216412 767.37674396 657.64560634 767.37278692 653.29902673 767.3677479 C648.59711574 767.36340454 643.89520601 767.36489257 639.19329357 767.36565018 C631.05985846 767.36617296 622.9264314 767.36305188 614.79299831 767.35741234 C603.03361132 767.34926398 591.27422819 767.3466787 579.51483868 767.34542435 C560.43315729 767.34323906 541.3514802 767.33659319 522.26980114 767.32712173 C503.74050448 767.31793406 485.21120899 767.31085986 466.68191051 767.30661392 C465.53858234 767.3063512 464.39525417 767.30608848 463.21727969 767.30581779 C457.48118522 767.30451269 451.74509073 767.303249 446.00899625 767.30200589 C398.46881236 767.29164958 350.92863313 767.27404552 303.38845348 767.25168228 C303.38747667 766.65253547 303.38649987 766.05338866 303.38549346 765.43608588 C303.32703773 729.81132842 303.25310376 694.1866351 303.1594672 658.56195233 C303.14820099 654.27062237 303.13706222 649.97929208 303.12600231 645.68796158 C303.12269679 644.40663957 303.12269679 644.40663957 303.11932448 643.09943227 C303.08409133 629.32458097 303.05914866 615.54972972 303.03810646 601.77485027 C303.01623233 587.60771877 302.98307358 573.44064501 302.93975192 559.27356273 C302.91343356 550.55367711 302.895593 541.83386321 302.88910744 533.11393992 C302.88379212 527.10902045 302.86737408 521.10419072 302.84278782 515.0993196 C302.82897929 511.65095249 302.81952222 508.20274514 302.82344532 504.75434875 C302.83352274 482.23135825 301.53182688 459.81154473 296.70095348 437.75168228 C296.44604137 436.56284439 296.19112926 435.3740065 295.92849255 434.14914322 C283.78303853 379.25517365 258.28402348 329.50670052 221.38845348 287.25168228 C220.71040661 286.46148697 220.03235973 285.67129166 219.33376598 284.85715103 C214.23147089 279.03021092 208.78933567 273.55084356 203.32595348 268.06418228 C202.56983776 267.30339371 201.81372204 266.54260513 201.03469372 265.75876236 C196.91654054 261.65225884 192.71270224 257.71572479 188.30666637 253.92038345 C185.17449776 251.19563196 182.1612998 248.34645223 179.13845348 245.50168228 C172.59706421 239.37132158 166.00740664 233.29818544 159.38845348 227.25168228 C157.40851436 225.44002483 155.42953786 223.62731913 153.45095348 221.81418228 C152.95828991 221.36276871 152.46562634 220.91135513 151.95803356 220.44626236 C147.7105248 216.55196531 143.4765929 212.64306931 139.24416637 208.73239517 C135.63318766 205.39715413 132.01395677 202.07112495 128.38845348 198.75168228 C121.4873362 192.43238157 114.61542187 186.08158719 107.74294567 179.73117447 C101.47566497 173.9405497 95.20119778 168.1581405 88.90774059 162.39596939 C84.67581069 158.51953548 80.45902424 154.62686524 76.24392223 150.73215103 C72.63300767 147.39701037 69.01389703 144.07101977 65.38845348 140.75168228 C60.66202404 136.42431812 55.95055283 132.08103298 51.24392223 127.73215103 C47.63300767 124.39701037 44.01389703 121.07101977 40.38845348 117.75168228 C35.66202404 113.42431812 30.95055283 109.08103298 26.24392223 104.73215103 C22.63300753 101.39701025 19.01387195 98.07104729 15.38845348 94.75168228 C8.4873362 88.43238157 1.61542187 82.08158719 -5.25705433 75.73117447 C-6.35166275 74.71981612 -7.44638909 73.70858538 -8.54123402 72.69748306 C-9.6250185 71.69634363 -10.70835603 70.69472012 -11.79123402 69.69260025 C-14.47488082 67.21169254 -17.16868995 64.74370903 -19.88498402 62.29855728 C-36.91439909 46.94612424 -36.91439909 46.94612424 -37.92795277 35.75949478 C-38.2555186 25.25625486 -36.70734585 16.63140177 -29.37717152 8.78293228 C-20.62571276 1.19317159 -11.14182594 -0.04803886 0 0 Z M523.38845348 119.25168228 C524.02741082 125.27619128 525.17090997 131.00747849 526.6223402 136.88498306 C526.84865627 137.81687958 527.07497234 138.74877609 527.30814648 139.7089119 C528.05730997 142.7893051 528.81274766 145.86812393 529.56814098 148.94699478 C530.10128351 151.13454566 530.63399997 153.32220041 531.16631603 155.50995255 C532.57533838 161.29645516 533.98952731 167.08168233 535.40499401 172.86661148 C537.6279346 181.95577539 539.84269331 191.04693938 542.05862713 200.13781357 C542.60604818 202.38318846 543.15367043 204.62851431 543.70149517 206.87379074 C549.33945615 229.98172809 554.88147362 253.11221804 560.38845348 276.25168228 C558.4849815 276.39535736 558.4849815 276.39535736 556.54305553 276.54193497 C544.594111 277.44494864 532.64586742 278.35677419 520.69825649 279.27726936 C514.55560364 279.7502397 508.41274471 280.22008368 502.26931286 280.68283463 C496.3424723 281.1293858 490.4163082 281.58408138 484.49052715 282.04447174 C482.22769705 282.21882882 479.96463735 282.39023168 477.70135784 282.55865479 C474.53552842 282.79474513 471.37067236 283.04125119 468.2058363 283.2902565 C467.26644207 283.35787186 466.32704784 283.42548721 465.35918713 283.49515152 C464.49544476 283.56521408 463.63170238 283.63527664 462.741786 283.70746231 C461.9932901 283.76461348 461.2447942 283.82176464 460.4736166 283.88064766 C458.1581486 284.29266281 456.43263836 285.10888734 454.38845348 286.25168228 C475.26939782 307.15545948 496.15291481 328.05666374 517.04000545 348.95429957 C519.50822464 351.42376941 521.97642199 353.89326109 524.44460583 356.36276627 C524.93595878 356.85438153 525.42731174 357.34599679 525.93355417 357.85250949 C533.88014273 365.80344446 541.82496173 373.75614536 549.76912344 381.70950503 C557.92599163 389.87573837 566.08480666 398.04002232 574.24530792 406.20262522 C578.82659132 410.78521119 583.40699325 415.36867039 587.98528576 419.95424461 C592.29713852 424.27289952 596.61134845 428.58918566 600.92735386 432.90369034 C602.50840421 434.48501513 604.08860189 436.06719298 605.66786671 437.65030098 C607.8303847 439.81782178 609.99599953 441.98220243 612.16237926 444.14586258 C612.781083 444.76747916 613.39978674 445.38909574 614.03723907 446.02954918 C617.77100792 449.75073253 621.6274688 453.27634293 625.6242981 456.7137928 C628.05413131 458.83198203 630.33533923 461.07885848 632.61110973 463.36081314 C633.07069576 463.82025314 633.53028179 464.27969315 634.00379467 464.75305557 C635.48857042 466.23851554 636.96979464 467.72746043 638.45095348 469.21652603 C639.49305089 470.26049294 640.53537257 471.30423601 641.57790661 472.34776688 C644.29589794 475.06954151 647.01087038 477.79430751 649.72518444 480.51974869 C652.50562367 483.31049302 655.28896378 486.09834099 658.07204723 488.88644791 C663.5136619 494.33872587 668.95208452 499.79417337 674.38845348 505.25168228 C675.52069615 501.86002478 675.23866983 499.61663285 674.40343761 496.16649246 C674.03770138 494.62611313 674.03770138 494.62611313 673.66457653 493.05461502 C673.38831432 491.93314575 673.11205212 490.81167648 672.82741833 489.6562233 C672.5429887 488.47017502 672.25855907 487.28412674 671.96551037 486.0621376 C671.18255414 482.80524516 670.39140769 479.55054768 669.59663248 476.29653287 C668.76213858 472.87132478 667.93824548 469.44356879 667.11321545 466.01607132 C665.54344203 459.50162987 663.96428177 452.98950205 662.38170397 446.4781608 C660.60158387 439.15226095 658.8313158 431.82399365 657.06217933 424.49543488 C654.89663715 415.52491359 652.72994835 406.55467586 650.55456066 397.58653641 C647.13359571 383.48246774 643.73405876 369.37383063 640.38845348 355.25168228 C640.96837425 355.20623276 641.54829502 355.16078323 642.14578915 355.11395645 C662.97052753 353.47658528 683.75473628 351.42398678 704.54128551 349.36545181 C708.72831132 348.95125159 712.9158097 348.54239288 717.10378551 348.13791275 C722.21559953 347.64419689 727.32649864 347.14189475 732.43684292 346.63319778 C734.3719055 346.44200978 736.30726952 346.25384747 738.2429266 346.06877518 C740.92303101 345.81186924 743.6018085 345.54392883 746.28054333 345.27316666 C747.07721416 345.19934265 747.873885 345.12551865 748.69469738 345.04945755 C752.99653065 344.71362791 752.99653065 344.71362791 756.38845348 342.25168228 C754.0594938 339.89315572 751.72447238 337.54071554 749.38845348 335.18918228 C748.74005505 334.53240494 748.09165661 333.87562759 747.42360973 333.19894791 C744.19161028 329.95094846 740.92672981 326.80508381 737.45095348 323.81808853 C732.03858997 319.15164279 727.10629987 314.0159083 722.09939098 308.92355728 C718.63232961 305.42075301 715.16040746 301.99404507 711.41970348 298.78293228 C705.78300718 293.93872199 700.66458211 288.57237156 695.45485973 283.27902603 C691.85909122 279.64829056 688.26698393 276.08110871 684.38845348 272.75168228 C678.76032592 267.92035842 673.6540875 262.5617085 668.45485973 257.27902603 C664.23383938 253.01695848 659.94876958 248.9450967 655.39821911 245.03879166 C650.74503499 240.90112065 646.46296986 236.36159996 642.09939098 231.92355728 C638.63232961 228.42075301 635.16040746 224.99404507 631.41970348 221.78293228 C625.78300718 216.93872199 620.66458211 211.57237156 615.45485973 206.27902603 C611.85909122 202.64829056 608.26698393 199.08110871 604.38845348 195.75168228 C598.76032592 190.92035842 593.6540875 185.5617085 588.45485973 180.27902603 C584.23383938 176.01695848 579.94876958 171.9450967 575.39821911 168.03879166 C570.74503499 163.90112065 566.46296986 159.36159996 562.09939098 154.92355728 C558.63655954 151.42502654 555.1698703 148.00307481 551.43142223 144.79855728 C545.68038729 139.85810913 540.47992439 134.35201976 535.19118786 128.92746353 C533.98365856 127.70349869 533.98365856 127.70349869 532.75173473 126.45480728 C532.03284069 125.71907486 531.31394665 124.98334244 530.57326794 124.22531509 C528.32003865 122.18988035 526.03725942 120.72314436 523.38845348 119.25168228 Z " fill="#AE7DC2" transform="translate(572.6115465164185,407.74831771850586)"/>
<path d="M0 0 C1.28504425 -0.00525696 2.5700885 -0.01051392 3.89407349 -0.01593018 C7.37603735 -0.02944384 10.85773032 -0.02436971 14.33969808 -0.01479292 C18.02004585 -0.00710099 21.70037319 -0.01426903 25.38072205 -0.01895142 C31.56456582 -0.02438642 37.7483016 -0.01728209 43.93212891 -0.00292969 C51.02346867 0.01334176 58.11454881 0.0081394 65.20588213 -0.0084089 C71.34574214 -0.02214965 77.48552525 -0.02388133 83.62539572 -0.0160929 C87.26945725 -0.01147811 90.91339807 -0.01061504 94.55745125 -0.02070236 C127.38798172 -0.09902243 159.58784602 1.90225307 184.64819336 25.55615234 C206.43522369 47.98176804 210.89038666 81.22962406 210.49975586 111.13037109 C209.53465598 153.07266271 201.38549099 201.59268397 180.35131836 238.38818359 C179.9778125 239.05253418 179.60430664 239.71688477 179.21948242 240.40136719 C173.41963394 250.59335737 166.69287251 259.16457294 158.35131836 267.38818359 C157.22790039 268.52707031 157.22790039 268.52707031 156.08178711 269.68896484 C126.68067702 297.78093459 80.61149324 297.8848295 42.65449262 297.79116011 C38.52062783 297.78342018 34.38678027 297.79064596 30.25291443 297.7953186 C23.33540171 297.80072621 16.41798615 297.79370815 9.50048828 297.77929688 C1.52995702 297.76288254 -6.44034497 297.76834222 -14.41087097 297.78477609 C-21.3074601 297.798419 -28.20398058 297.80029984 -35.10057884 297.79246008 C-39.19740028 297.78781136 -43.29411398 297.78708275 -47.39092827 297.79706955 C-51.2301683 297.80578169 -55.06911301 297.79964069 -58.90832138 297.78238678 C-60.30867461 297.77844867 -61.70905307 297.77950963 -63.10939598 297.78617477 C-75.17334112 297.83827356 -85.22047134 296.35339574 -94.64868164 288.38818359 C-101.17361016 281.76352909 -103.68146185 273.99794584 -104.14868164 264.82568359 C-103.93923632 258.42598935 -102.76689391 252.36470161 -101.47045898 246.10375977 C-101.24754873 245.00931895 -101.02463848 243.91487814 -100.79497337 242.78727245 C-100.08608363 239.31952439 -99.36888995 235.85359754 -98.64868164 232.38818359 C-98.42408516 231.30652042 -98.19948868 230.22485725 -97.96808624 229.11041641 C-96.32917653 221.23715231 -94.66615063 213.36905293 -93.00024414 205.50146484 C-92.46482713 202.96782065 -91.92951593 200.4341541 -91.39430237 197.90046692 C-89.68979135 189.83337209 -87.98206965 181.76695815 -86.27368164 173.70068359 C-86.12896691 173.01737315 -85.98425218 172.33406271 -85.83515215 171.63004589 C-83.20232319 159.19861623 -80.56900483 146.76728986 -77.93293649 134.33654666 C-74.90131807 120.04025098 -71.87798382 105.74229782 -68.87921143 91.43907166 C-67.66704363 85.65835755 -66.44800038 79.8791039 -65.22589111 74.10048389 C-64.46238399 70.48866113 -63.702459 66.8761784 -62.95196533 63.2616272 C-62.14752534 59.38728979 -61.32665518 55.51654101 -60.50415039 51.64599609 C-60.17454063 50.03577324 -60.17454063 50.03577324 -59.83827209 48.39302063 C-56.57032735 33.21073034 -50.85540818 17.57756345 -37.64868164 8.38818359 C-26.28935033 1.13248506 -13.18510991 -0.06791137 0 0 Z M17.35131836 66.38818359 C7.61990184 79.26799957 6.57121208 100.8401539 3.29172802 116.26734877 C2.83220014 118.4280462 2.37162675 120.5885182 1.9107132 122.74892044 C0.29860611 130.30570577 -1.30925589 137.86338061 -2.91333008 145.421875 C-4.40276051 152.43956033 -5.90198599 159.45510571 -7.40561891 166.4697603 C-8.70307595 172.52482432 -9.99345285 178.58136963 -11.27844024 184.63909209 C-12.04313872 188.24341022 -12.81065807 191.84706848 -13.58545685 195.44923019 C-14.44782347 199.45979452 -15.29545437 203.47333854 -16.1418457 207.48730469 C-16.3973822 208.66567902 -16.6529187 209.84405334 -16.91619873 211.05813599 C-19.44938388 221.83863381 -19.44938388 221.83863381 -17.14868164 232.26318359 C-11.67385974 236.91678221 -5.4945007 237.84214585 1.48803711 237.75146484 C2.24136826 237.75286972 2.9946994 237.7542746 3.77085876 237.75572205 C6.19392896 237.75436704 8.61592766 237.72929452 11.03881836 237.70068359 C11.86734314 237.69508423 12.69586792 237.68948486 13.54949951 237.68371582 C40.76258241 237.49814067 71.80604086 236.67926507 94.35131836 219.38818359 C95.36194336 218.66630859 96.37256836 217.94443359 97.41381836 217.20068359 C122.72389592 195.02821896 129.34072592 149.40482059 131.51977539 117.95703125 C132.25705661 103.43043177 130.74828141 87.8946911 120.85131836 76.51318359 C120.02631836 75.81193359 119.20131836 75.11068359 118.35131836 74.38818359 C117.58819336 73.73720703 116.82506836 73.08623047 116.03881836 72.41552734 C97.93823488 58.76116277 70.07901631 60.21248716 48.53881836 60.13818359 C47.74796844 60.13291656 46.95711853 60.12764954 46.14230347 60.1222229 C43.85111712 60.11041956 41.56047847 60.11386669 39.26928711 60.12255859 C38.58972961 60.1186058 37.91017212 60.11465302 37.21002197 60.11058044 C29.79498159 60.18107192 23.14149807 61.51916883 17.35131836 66.38818359 Z " fill="#FFFFFF" transform="translate(394.648681640625,1346.61181640625)"/>
<path d="M0 0 C1.68662515 0.00028272 3.37325041 0.00012249 5.05987549 -0.0004425 C9.59822813 -0.00072718 14.13655386 0.00511584 18.67490029 0.01213145 C23.43277614 0.01842028 28.19065274 0.01897314 32.9485321 0.02015686 C41.94021915 0.02325397 50.93189392 0.03144534 59.92357558 0.04150635 C70.16793681 0.05271803 80.41229865 0.05819063 90.65666449 0.06320179 C111.71341793 0.07362945 132.77016034 0.09119725 153.8269043 0.11352539 C153.03545782 4.08051272 152.24325575 8.04734881 151.45092773 12.01416016 C151.11815323 13.68220577 151.11815323 13.68220577 150.77865601 15.38394928 C149.07129161 23.92910606 147.32314952 32.46461371 145.51391602 40.98876953 C145.05920675 43.13454001 144.60909106 45.28124857 144.15893555 47.42797852 C143.86623759 48.81149937 143.5732805 50.19496544 143.2800293 51.57836914 C143.02382812 52.79129639 142.76762695 54.00422363 142.50366211 55.25390625 C141.8269043 58.11352539 141.8269043 58.11352539 140.8269043 60.11352539 C139.83135371 60.11849061 139.83135371 60.11849061 138.81569099 60.12355614 C122.58623094 60.20515671 106.35686818 60.29736643 90.12753487 60.40105247 C82.27880887 60.45094671 74.43009212 60.49738997 66.58129883 60.53540039 C59.73176074 60.56858067 52.88229974 60.60855035 46.03284729 60.65631545 C42.41387142 60.68132498 38.79494498 60.70317788 35.17590714 60.71686935 C-9.57966969 60.62527671 -9.57966969 60.62527671 -48.1730957 81.11352539 C-71.64046112 106.6199194 -80.99191963 150.6297514 -82.1730957 184.11352539 C-82.21305664 185.01586914 -82.25301758 185.91821289 -82.29418945 186.84790039 C-82.59372037 199.32248226 -80.65489645 211.87687034 -72.7355957 221.86352539 C-61.45400429 233.64467067 -43.0090282 235.60437507 -27.45378113 236.22138977 C-24.56692967 236.276882 -21.68154786 236.30428012 -18.79418945 236.31665039 C-17.74207779 236.32235046 -16.68996613 236.32805054 -15.60597229 236.33392334 C-13.39666735 236.34330838 -11.18734882 236.34988121 -8.97802734 236.35375977 C-5.61637017 236.36350864 -2.25531418 236.39461165 1.10620117 236.42602539 C3.26440071 236.43255304 5.42260456 236.43780445 7.58081055 236.44165039 C9.07180016 236.46017059 9.07180016 236.46017059 10.59291077 236.47906494 C18.06514394 236.45541148 24.64064714 235.53785149 30.7019043 230.92602539 C34.78579035 225.52088209 36.2625415 218.97343428 37.62036133 212.42822266 C37.77525024 211.70689651 37.93013916 210.98557037 38.08972168 210.24238586 C38.59364883 207.8893891 39.08909505 205.53469033 39.5847168 203.17993164 C39.93611491 201.53452554 40.28816598 199.88925876 40.64083862 198.24412537 C41.56290665 193.9368042 42.47829831 189.62809585 43.39160156 185.31890869 C44.85901386 178.39729433 46.33336907 171.47717596 47.81393051 164.55836296 C48.32969367 162.14097511 48.84058236 159.72259169 49.35110474 157.30409241 C49.6646268 155.83371021 49.97832738 154.36336606 50.29223633 152.89306641 C50.56520538 151.60481461 50.83817444 150.31656281 51.11941528 148.98927307 C51.8269043 146.11352539 51.8269043 146.11352539 52.8269043 145.11352539 C55.23038715 145.01855831 57.60501411 144.98793678 60.00878906 145 C60.75996002 144.99985397 61.51113098 144.99970795 62.2850647 144.9995575 C64.77950889 145.00025676 67.27387933 145.00804975 69.76831055 145.01586914 C71.49323994 145.01773327 73.21816986 145.0191572 74.94309998 145.02015686 C79.49202933 145.02398242 84.04092696 145.03381302 88.58984375 145.04486084 C93.22810436 145.05507415 97.86637007 145.05965431 102.50463867 145.06469727 C111.61207452 145.07543525 120.71948677 145.09251212 129.8269043 145.11352539 C125.83423559 166.77441807 121.27787931 188.31366224 116.66162109 209.84863281 C115.80778305 213.8350404 114.96183904 217.82300257 114.12255859 221.8125 C113.09128216 226.71451559 112.04673849 231.61353149 110.99293327 236.51075172 C110.59979127 238.34787506 110.21104885 240.18594663 109.82718086 242.02503014 C106.75219199 256.72842558 103.51601195 271.90021842 92.8269043 283.11352539 C92.23264648 283.74774414 91.63838867 284.38196289 91.02612305 285.03540039 C79.90336078 295.81273526 64.75316298 297.419802 49.99951172 297.38818359 C48.75406586 297.39329453 47.50862 297.39840546 46.22543335 297.40367126 C42.83414651 297.41512748 39.44310549 297.41764995 36.0518167 297.41510797 C33.20012867 297.41402979 30.34846255 297.418944 27.49677926 297.42371339 C20.75011449 297.43477914 14.00350538 297.43526515 7.25683594 297.42919922 C0.3541766 297.42318695 -6.54827747 297.43540687 -13.45090181 297.45676929 C-19.42082201 297.474549 -25.39067792 297.4803605 -31.36062354 297.47713155 C-34.90638955 297.4753414 -38.45200979 297.47772038 -41.99775124 297.49184608 C-76.93287912 297.6190985 -110.75212225 294.38154822 -137.3605957 269.42602539 C-157.38307986 248.70434338 -161.60908128 220.64235206 -161.5480957 193.11352539 C-161.54755188 192.18933807 -161.54700806 191.26515076 -161.54644775 190.31295776 C-161.50239682 173.95860952 -160.28260661 158.20401038 -157.1730957 142.11352539 C-156.95347168 140.97431641 -156.73384766 139.83510742 -156.50756836 138.66137695 C-149.16920505 101.67353299 -138.65858874 65.73770648 -113.1730957 37.11352539 C-112.34036133 36.16735352 -111.50762695 35.22118164 -110.6496582 34.24633789 C-82.89521422 4.6477448 -38.25075984 -0.09082221 0 0 Z " fill="#FFFFFF" transform="translate(991.173095703125,1346.886474609375)"/>
<path d="M0 0 C23.06234773 -0.07025587 46.12467766 -0.12306913 69.1871109 -0.15543652 C79.89674977 -0.17086846 90.60632193 -0.19188735 101.31591797 -0.22631836 C110.6565075 -0.2563336 119.99704869 -0.27560165 129.33768511 -0.28226548 C134.27793397 -0.2861573 139.21804459 -0.29522605 144.1582489 -0.31719017 C148.82035633 -0.33774742 153.48227026 -0.34379546 158.14441872 -0.33932304 C159.84379444 -0.34013973 161.54317751 -0.34598968 163.24251366 -0.35761642 C177.03043274 -0.44722264 191.7258596 -0.01719267 204 7 C204.76828125 7.43183594 205.5365625 7.86367187 206.328125 8.30859375 C216.11427913 14.28722103 220.71824316 22.63787977 223.6875 33.51953125 C229.52844822 60.57447891 221.348808 94.56064847 206.89306641 117.77783203 C196.93662018 132.79687803 183.54451227 141.24046166 166 145 C167.3921875 145.37125 167.3921875 145.37125 168.8125 145.75 C181.13064871 149.34071541 191.28034811 153.45059832 198 165 C199.26160379 167.9470276 200.22425002 170.89141916 201 174 C201.18304687 174.72960938 201.36609375 175.45921875 201.5546875 176.2109375 C206.26506463 205.71277318 195.64870316 240.64328014 179.00390625 264.91015625 C177.10090317 267.38750634 175.11096925 269.69820867 173 272 C172.26394531 272.83917969 171.52789063 273.67835938 170.76953125 274.54296875 C157.19472852 289.18072504 137.64729718 296.02184151 117.95965171 297.1130929 C112.45747313 297.28868747 106.95414454 297.25102139 101.44995117 297.22705078 C99.6155447 297.2264855 97.78113778 297.22680551 95.94673157 297.22793579 C91.00546979 297.22850573 86.06430663 297.21681 81.12306762 297.20278788 C75.94478729 297.19022023 70.76650429 297.18910528 65.58821106 297.18673706 C55.79964901 297.18053994 46.01113205 297.1641532 36.22258979 297.14403808 C25.07135808 297.12162385 13.92012413 297.1106718 2.76887548 297.10064721 C-20.15410793 297.07978529 -43.07705143 297.04464393 -66 297 C-65.43388731 289.70325613 -64.24488434 282.67536269 -62.71484375 275.5234375 C-62.49429825 274.47217682 -62.27375275 273.42091614 -62.04652405 272.33779907 C-61.34843077 269.0158081 -60.64309217 265.69540538 -59.9375 262.375 C-59.45980465 260.1081744 -58.98258646 257.84124818 -58.50585938 255.57421875 C-57.34275197 250.04830435 -56.17370939 244.52367168 -55 239 C-54.01576254 238.99365209 -54.01576254 238.99365209 -53.0116415 238.98717594 C-36.98355527 238.88349103 -20.95551177 238.77479999 -4.92749691 238.66066074 C2.82379317 238.60558044 10.57508784 238.55214241 18.32641602 238.50268555 C25.08909945 238.45953238 31.85175244 238.41318068 38.61438841 238.36312145 C42.18910842 238.33676838 45.76382338 238.31192634 49.33857918 238.29092598 C82.65090276 240.15879683 82.65090276 240.15879683 112 228 C119.907607 218.59151575 122.99266719 204.05906809 122 192 C121.01012161 187.16805125 119.19268661 183.02934073 115.09758186 180.01857471 C106.04719122 175.62375265 95.14468754 175.55568622 85.29345703 175.56762695 C83.3591835 175.55233948 83.3591835 175.55233948 81.38583374 175.53674316 C77.89914721 175.50950921 74.41262363 175.49993526 70.92584467 175.49388909 C67.26364012 175.48441642 63.6015532 175.45820699 59.93942261 175.43388367 C53.02671574 175.39045686 46.11403201 175.36176449 39.20123088 175.33856028 C31.32190648 175.31137975 23.44270183 175.26747701 15.56346345 175.22227156 C-0.62429668 175.12976707 -16.81207839 175.05793107 -33 175 C-32.02226021 165.59114172 -32.02226021 165.59114172 -31.07617188 160.98681641 C-30.89928833 160.11626617 -30.72240479 159.24571594 -30.54016113 158.3487854 C-30.35159546 157.44220184 -30.16302979 156.53561829 -29.96875 155.6015625 C-29.77277222 154.64478607 -29.57679443 153.68800964 -29.37487793 152.70223999 C-28.96325787 150.69677021 -28.54969769 148.69169774 -28.13427734 146.68701172 C-27.49769657 143.61388007 -26.86750861 140.53948857 -26.23828125 137.46484375 C-25.8363089 135.51034025 -25.43397792 133.55591046 -25.03125 131.6015625 C-24.84268433 130.68283356 -24.65411865 129.76410461 -24.45983887 128.8175354 C-24.28295532 127.96589813 -24.10607178 127.11426086 -23.92382812 126.23681641 C-23.76918091 125.48896881 -23.61453369 124.74112122 -23.4552002 123.97061157 C-23 122 -23 122 -22 119 C-20.98980537 118.99780016 -20.98980537 118.99780016 -19.95920277 118.99555588 C-3.52280492 118.95839856 12.91335512 118.89926644 29.34958172 118.81609726 C37.29824317 118.7763983 45.24680693 118.74395963 53.19555664 118.72900391 C60.12897239 118.71593971 67.06217236 118.68885458 73.99546653 118.64538693 C77.66185815 118.62287843 81.32798469 118.60708287 84.99445152 118.60811615 C89.10166393 118.60900959 93.20810284 118.57858024 97.31518555 118.54589844 C99.11055 118.55344398 99.11055 118.55344398 100.94218445 118.56114197 C112.17984749 118.42362752 123.84930521 116.32535254 132 108 C138.90066819 99.8935699 142.14434226 87.51894209 142 77 C141.41307007 71.14118155 139.36639945 66.99479098 135 63 C127.82064087 59.34423694 120.17973951 59.55865005 112.31030273 59.56762695 C110.94937763 59.55859451 109.58846063 59.54826368 108.22755432 59.53674316 C104.55876087 59.50932073 100.8901224 59.49990891 97.22123981 59.49388909 C93.37749847 59.4844667 89.53387115 59.45826038 85.69020081 59.43388367 C78.42316681 59.3903208 71.15615508 59.36171129 63.88903052 59.33856028 C55.61079965 59.31145364 47.33268408 59.26754565 39.05453575 59.22227156 C22.03641665 59.12957169 5.01827261 59.05782409 -12 59 C-10.74754896 51.13130964 -9.29723802 43.33493816 -7.6171875 35.546875 C-7.28849167 34.00752289 -7.28849167 34.00752289 -6.95315552 32.43707275 C-6.2629537 29.2075038 -5.56904725 25.97874449 -4.875 22.75 C-4.40209682 20.54041742 -3.92943843 18.33078243 -3.45703125 16.12109375 C-2.30751177 10.7467878 -1.15496207 5.3731388 0 0 Z " fill="#FF006F" transform="translate(1734,1347)"/>
<path d="M0 0 C5.85298907 4.63231221 8.65818368 9.97444993 9.56640625 17.421875 C9.85905508 24.1723081 8.82851593 30.30218639 7.49121094 36.90820312 C7.26811626 38.03730354 7.04502159 39.16640396 6.81516647 40.32971954 C4.07947858 54.0635927 1.16287596 67.76038452 -1.76357555 81.45461082 C-2.39862466 84.42793828 -3.0319659 87.40162854 -3.66532159 90.3753171 C-5.15659022 97.37700314 -6.65038662 104.37814624 -8.14599609 111.37890625 C-9.68588553 118.58710834 -11.22183283 125.79614256 -12.75587153 133.00559187 C-14.08220511 139.2383721 -15.41066123 145.47069715 -16.74090123 151.70264482 C-17.53175297 155.40767506 -18.32185738 159.11286038 -19.11000824 162.81846619 C-19.98264986 166.92066449 -20.85973855 171.02189924 -21.73730469 175.12304688 C-22.12688606 176.95854095 -22.12688606 176.95854095 -22.52433777 178.83111572 C-22.7624971 179.94061584 -23.00065643 181.05011597 -23.24603271 182.1932373 C-23.55569284 183.64418415 -23.55569284 183.64418415 -23.87160873 185.12444305 C-24.43359375 187.421875 -24.43359375 187.421875 -25.43359375 189.421875 C-11.90359375 189.421875 1.62640625 189.421875 15.56640625 189.421875 C14.0217955 196.79546932 12.47685892 204.16898102 10.92864227 211.54181671 C10.20777152 214.97519496 9.48752825 218.4087021 8.76879883 221.8425293 C7.94417257 225.78214965 7.11669507 229.72116635 6.2890625 233.66015625 C6.03173843 234.89147781 5.77441437 236.12279938 5.5092926 237.39143372 C5.26911911 238.53238998 5.02894562 239.67334625 4.78149414 240.84887695 C4.57053604 241.854814 4.35957794 242.86075104 4.14222717 243.89717102 C3.56640625 246.421875 3.56640625 246.421875 2.56640625 249.421875 C-10.96359375 249.421875 -24.49359375 249.421875 -38.43359375 249.421875 C-39.90098023 257.12229019 -39.90098023 257.12229019 -41.36425781 264.82348633 C-43.25938606 274.7222885 -45.35595158 284.55307468 -47.43359375 294.421875 C-72.84359375 294.421875 -98.25359375 294.421875 -124.43359375 294.421875 C-123.7800242 288.53974906 -123.04623125 282.93191908 -121.83984375 277.17578125 C-121.68825806 276.4385936 -121.53667236 275.70140594 -121.38049316 274.94187927 C-121.06308771 273.40298364 -120.74369517 271.86449658 -120.42236328 270.32641602 C-119.92991 267.96672357 -119.44499473 265.60556817 -118.9609375 263.24414062 C-118.65018005 261.7420963 -118.3389977 260.24013981 -118.02734375 258.73828125 C-117.88252563 258.03312881 -117.73770752 257.32797638 -117.58850098 256.60145569 C-116.54910808 251.65290366 -116.54910808 251.65290366 -115.43359375 249.421875 C-116.17682074 249.42556217 -116.92004772 249.42924934 -117.68579674 249.43304825 C-135.79834904 249.52151556 -153.91085803 249.58764108 -172.02358055 249.62912369 C-180.78288931 249.64971933 -189.54205355 249.67778234 -198.30126953 249.72363281 C-205.93881316 249.76359267 -213.57625208 249.7893296 -221.21389735 249.79822898 C-225.25529297 249.80342831 -229.29638912 249.81558543 -233.33768845 249.84479523 C-237.14787166 249.87210932 -240.95763436 249.88028806 -244.76790619 249.87430573 C-246.16020372 249.87539887 -247.5525165 249.88325734 -248.94472885 249.8986969 C-258.65101004 250.00098544 -265.8378188 248.65498941 -274.24609375 243.796875 C-281.74847802 235.65142922 -282.74904505 226.02539591 -282.6484375 215.39453125 C-281.19169662 188.45806815 -270.72108489 167.63153169 -251.12109375 149.359375 C-246.57590241 145.31563334 -241.86084496 141.53645648 -237.05419922 137.81274414 C-232.21275796 134.05948068 -227.46754037 130.19979118 -222.74609375 126.296875 C-221.65542603 125.39545776 -221.65542603 125.39545776 -220.54272461 124.47583008 C-219.13726291 123.313477 -217.73206035 122.1508105 -216.32714844 120.98779297 C-206.05390601 112.49210229 -195.68044112 104.11741109 -185.33105469 95.71484375 C-175.62095762 87.83230959 -175.62095762 87.83230959 -165.93359375 79.921875 C-158.0866971 73.49422273 -150.20582013 67.1082901 -142.33105469 60.71484375 C-132.62095762 52.83230959 -132.62095762 52.83230959 -122.93359375 44.921875 C-117.86557782 40.77049574 -112.78368102 36.63638721 -107.69628906 32.50878906 C-104.21607063 29.68490603 -100.74006322 26.8561848 -97.2734375 24.015625 C-93.94422917 21.28942517 -90.60245538 18.57952692 -87.24853516 15.88378906 C-86.09888939 14.95776285 -84.95232551 14.02788638 -83.81005859 13.09277344 C-62.89242866 -3.97708701 -24.66213293 -15.99277962 0 0 Z M-80.43359375 79.421875 C-86.88313651 84.65647383 -93.26789109 89.95616473 -99.59667969 95.33544922 C-102.99102629 98.21553126 -106.41519442 101.05304265 -109.87109375 103.859375 C-114.11751757 107.31461651 -118.28655669 110.84885334 -122.43359375 114.421875 C-127.44678863 118.74116456 -132.51896695 122.97284619 -137.65625 127.14453125 C-140.77755742 129.70391554 -143.85809405 132.30781291 -146.93359375 134.921875 C-150.90262918 138.29471089 -154.89376396 141.63364145 -158.93359375 144.921875 C-165.17276131 150.00363177 -171.30251337 155.21081606 -177.43359375 160.421875 C-179.64096529 162.29801142 -181.84927679 164.17302988 -184.05859375 166.046875 C-184.59258789 166.50054443 -185.12658203 166.95421387 -185.67675781 167.42163086 C-188.29086319 169.63580523 -190.91980626 171.8261392 -193.58984375 173.97265625 C-194.56953125 174.76027344 -195.54921875 175.54789063 -196.55859375 176.359375 C-197.86183594 177.39384766 -197.86183594 177.39384766 -199.19140625 178.44921875 C-201.36732441 180.36357183 -203.03527411 181.88079069 -204.43359375 184.421875 C-204.10359375 186.071875 -203.77359375 187.721875 -203.43359375 189.421875 C-170.10359375 189.421875 -136.77359375 189.421875 -102.43359375 189.421875 C-96.30706411 161.96784058 -96.30706411 161.96784058 -90.3359375 134.48046875 C-90.17653749 133.73391588 -90.01713749 132.98736301 -89.85290718 132.21818733 C-89.02206034 128.32467997 -88.1933437 124.43072675 -87.36645508 120.53637695 C-86.69119111 117.35833038 -86.01112776 114.18136161 -85.32739258 111.00512695 C-84.48133871 107.07474712 -83.64283424 103.14283094 -82.80993843 99.20964241 C-82.49639154 97.73506624 -82.18021329 96.2610469 -81.86128044 94.78762627 C-81.42356464 92.7628023 -80.99561104 90.73615198 -80.57006836 88.70874023 C-80.325504 87.56267807 -80.08093964 86.41661591 -79.82896423 85.23582458 C-79.21049715 82.34924996 -79.21049715 82.34924996 -80.43359375 79.421875 Z " fill="#FF006F" transform="translate(1616.43359375,1349.578125)"/>
<path d="M0 0 C25.41 0 50.82 0 77 0 C75.87500648 11.24993525 75.87500648 11.24993525 74.94270325 15.60664368 C74.73232516 16.6027063 74.52194708 17.59876892 74.3051939 18.62501526 C74.07533196 19.68631149 73.84547003 20.74760773 73.60864258 21.84106445 C73.36348058 22.99410065 73.11831858 24.14713684 72.86572742 25.33511353 C72.18971815 28.50930121 71.50890339 31.68241251 70.82601404 34.85512567 C70.08853231 38.28742488 69.3574347 41.72108425 68.62557983 45.15458679 C67.35817914 51.09655291 66.08694446 57.03768792 64.81307983 62.97827148 C62.96989965 71.57407716 61.13283798 80.17118123 59.29757702 88.76868081 C58.44090408 92.78184722 57.58401248 96.79496693 56.72706604 100.80807495 C56.55536398 101.61216478 56.38366192 102.41625461 56.20675677 103.2447108 C54.97230507 109.02508591 53.73672106 114.80521832 52.50059509 120.5852356 C47.44292901 144.23501096 42.39950189 167.88778609 37.3671875 191.54296875 C37.19327634 192.36046356 37.01936517 193.17795838 36.84018397 194.02022576 C35.29169622 201.29929956 33.7434074 208.57841567 32.19539547 215.85759068 C30.03673064 226.00816158 27.87698951 236.15850284 25.71642113 246.30866873 C24.78542495 250.68256697 23.85460709 255.05650316 22.92380071 259.4304418 C22.19875946 262.83742725 21.47362847 266.24439353 20.74827194 269.65131187 C19.96234927 273.34300161 19.17680475 277.03477161 18.39135742 280.7265625 C18.16149549 281.80583669 17.93163355 282.88511087 17.6948061 283.99709034 C17.48442801 284.98627807 17.27404993 285.97546579 17.05729675 286.99462891 C16.87595279 287.84666901 16.69460882 288.69870911 16.50776958 289.5765686 C15.98996245 292.04790618 15.49519358 294.52403211 15 297 C-10.74 297 -36.48 297 -63 297 C-60.0798456 281.81519715 -57.16006608 266.66636963 -53.90519714 251.55500793 C-53.54064958 249.85999114 -53.54064958 249.85999114 -53.16873741 248.13073158 C-52.91711657 246.96094954 -52.66549572 245.79116749 -52.40625 244.5859375 C-51.86423466 242.05589606 -51.32247953 239.52579887 -50.78096008 236.99565125 C-49.62538704 231.59807056 -48.46797996 226.20088611 -47.30923462 220.8039856 C-45.47255987 212.24938208 -43.63959437 203.69398605 -41.80737305 195.13842773 C-41.49247764 193.66807513 -41.17758169 192.19772264 -40.8626852 190.72737026 C-40.38518085 188.49774202 -39.9076813 186.26811275 -39.43020028 184.03847951 C-38.45839634 179.50067545 -37.48628823 174.96293667 -36.5139541 170.42524618 C-31.57457559 147.37374884 -26.65160809 124.31878219 -21.73828125 101.26171875 C-21.39975531 99.67320469 -21.06122764 98.08469099 -20.72269821 96.49617767 C-17.61195773 81.89906169 -14.50229456 67.30171633 -11.3935197 52.70418161 C-10.1752017 46.98366717 -8.95638639 41.26325881 -7.73721188 35.54292685 C-7.03241432 32.23590891 -6.32788202 28.92883498 -5.62401772 25.62161827 C-4.86040816 22.03415065 -4.09595405 18.446864 -3.33129883 14.85961914 C-3.107649 13.80781149 -2.88399918 12.75600384 -2.65357208 11.67232323 C-2.44871437 10.71211077 -2.24385666 9.75189831 -2.03279114 8.7625885 C-1.85622388 7.93351014 -1.67965662 7.10443178 -1.49773884 6.25022984 C-1.03503728 4.15840022 -0.5196064 2.07842561 0 0 Z " fill="#FFFFFF" transform="translate(1231,1347)"/>
<path d="M0 0 C25.41 0 50.82 0 77 0 C75.74506816 8.15705699 74.43978332 16.14304622 72.69458008 24.18432617 C72.47035433 25.23238056 72.24612858 26.28043495 72.01510811 27.36024857 C71.27006496 30.8385792 70.5197535 34.31575182 69.76953125 37.79296875 C69.22868506 40.31381035 68.68821407 42.83473247 68.14808655 45.35572815 C66.98432505 50.78536419 65.8180762 56.2144607 64.65008545 61.64318848 C61.82604514 74.76976125 59.01285652 87.89866227 56.19933319 101.02749252 C55.53948502 104.10652355 54.87944333 107.18551299 54.21924591 110.26446915 C49.06835886 134.28784438 43.95175408 158.31836229 38.85813594 182.35394311 C38.31875853 184.89905674 37.77927686 187.44414825 37.23976326 189.98923302 C33.92088662 205.64588979 30.60363076 221.30288784 27.29211658 236.96110362 C25.98626298 243.13512412 24.67869424 249.3087799 23.36986786 255.48217088 C22.46622411 259.74492667 21.56468679 264.00812012 20.66485256 268.27168161 C19.98801972 271.4754859 19.30797627 274.67860882 18.62841797 277.88183594 C18.38966352 279.01635791 18.15090906 280.15087988 17.90491962 281.3197813 C17.68185737 282.36826653 17.45879511 283.41675177 17.22897339 284.49700928 C17.03857924 285.3970657 16.84818508 286.29712212 16.65202141 287.22445297 C15.87989273 290.51127672 14.92754059 293.75360793 14 297 C-11.41 297 -36.82 297 -63 297 C-61.87499934 286.87499403 -61.87499934 286.87499403 -60.81535339 281.91482544 C-60.57683655 280.7878572 -60.3383197 279.66088896 -60.09257507 278.49977016 C-59.83152481 277.28828839 -59.57047455 276.07680662 -59.30151367 274.82861328 C-59.0207534 273.51028061 -58.74037984 272.19186554 -58.46035767 270.87337589 C-57.69571053 267.27845871 -56.92562741 263.68472518 -56.15460372 260.09117103 C-55.32661953 256.22742289 -54.50374853 252.36258565 -53.68025208 248.49787903 C-52.07765868 240.98071891 -50.47044999 233.46455299 -48.86162692 225.94872397 C-46.99910567 217.24688296 -45.14109288 208.54408133 -43.28337836 199.84121311 C-40.23205434 185.54707593 -37.17768941 171.25359101 -34.12123322 156.96055043 C-30.11470857 138.22429239 -26.11773338 119.48601509 -22.12621981 100.7465539 C-20.01014208 90.81225293 -17.89195385 80.87840194 -15.77341366 70.94462585 C-15.46267828 69.48755968 -15.15194606 68.03049283 -14.84121704 66.57342529 C-14.61239294 65.50042923 -14.61239294 65.50042923 -14.37894613 64.40575647 C-13.3052078 59.37024843 -12.23264093 54.33449167 -11.16049194 49.29864502 C-9.7282781 42.57179491 -8.29317621 35.84556645 -6.85608482 29.1197567 C-6.33196604 26.6646115 -5.80879615 24.20926352 -5.28663063 21.75370216 C-4.58032233 18.43283297 -3.8706891 15.11269205 -3.16015625 11.79272461 C-2.95370074 10.81812853 -2.74724524 9.84353245 -2.5345335 8.83940315 C-2.34532739 7.95875128 -2.15612127 7.0780994 -1.96118164 6.17076111 C-1.79848282 5.40788253 -1.635784 4.64500395 -1.46815491 3.85900784 C-1 2 -1 2 0 0 Z " fill="#FFFFFF" transform="translate(710,1347)"/>
<path d="M0 0 C1.01964844 -0.01675781 2.03929687 -0.03351563 3.08984375 -0.05078125 C6.75541775 0.39717983 8.2477555 0.87727162 11.0625 3.3125 C15.08396425 10.13274804 17.86697765 17.59465993 20.671875 24.97265625 C21.08415344 26.0437413 21.49643188 27.11482635 21.92120361 28.21836853 C23.22302602 31.60212117 24.51823578 34.98834999 25.8125 38.375 C27.1218789 41.79345364 28.4326991 45.21133483 29.74664307 48.6280365 C30.56081783 50.74588858 31.3722174 52.86480999 32.18060303 54.98487854 C32.72687347 56.40787514 32.72687347 56.40787514 33.28417969 57.85961914 C33.60441101 58.69771622 33.92464233 59.53581329 34.25457764 60.39930725 C34.90944238 62.2848836 34.90944238 62.2848836 36.0625 63.3125 C36.27690231 62.76285583 36.49130463 62.21321167 36.71220398 61.64691162 C38.96591196 55.87008326 41.22155605 50.09401351 43.47827148 44.31835938 C44.31762465 42.16946059 45.15650178 40.0203758 45.99487305 37.87109375 C48.34182431 31.85484703 50.69775057 25.84229931 53.0692749 19.83569336 C53.92691373 17.65694394 54.77458087 15.47466453 55.61962891 13.29101562 C56.25070557 11.70063477 56.25070557 11.70063477 56.89453125 10.078125 C57.22815674 9.22508789 57.56178223 8.37205078 57.90551758 7.49316406 C59.90285694 3.72860716 62.02093849 1.65968717 66.0625 0.3125 C70.997543 -0.08474804 75.53006939 -0.34425597 80.125 1.625 C82.95483922 4.08969868 84.01354223 5.67492768 84.30300903 9.44462585 C84.29856781 10.73480118 84.29412659 12.0249765 84.28955078 13.35424805 C84.28984283 14.06669678 84.29013489 14.77914551 84.29043579 15.51318359 C84.28904296 17.86698607 84.27348419 20.2204716 84.2578125 22.57421875 C84.2540822 24.20660733 84.25123531 25.83899815 84.24923706 27.47138977 C84.24160194 31.76716293 84.22195452 36.06280079 84.1998291 40.35852051 C84.17936805 44.74225026 84.17023479 49.12600188 84.16015625 53.50976562 C84.13870847 62.11074609 84.10352734 70.71159062 84.0625 79.3125 C79.1125 79.3125 74.1625 79.3125 69.0625 79.3125 C68.7325 59.1825 68.4025 39.0525 68.0625 18.3125 C62.73509538 32.16122316 62.73509538 32.16122316 57.41357422 46.01220703 C54.25372666 54.22410792 51.09279208 62.43752564 47.6953125 70.5546875 C47.2533252 71.61284668 46.81133789 72.67100586 46.35595703 73.76123047 C45.13976251 76.16010415 44.14274253 77.6372021 42.0625 79.3125 C37.89088739 80.56795675 34.03201453 80.53623412 29.8125 79.5625 C23.11839528 74.08550523 20.66443194 62.93458332 17.671875 54.9921875 C17.0867514 53.45427048 17.0867514 53.45427048 16.48980713 51.88528442 C15.26067724 48.65395382 14.03613678 45.42091433 12.8125 42.1875 C11.57425933 38.9185062 10.33496745 35.64993018 9.09234619 32.38259888 C8.32290386 30.35924681 7.5560219 28.33491888 6.79193115 26.30953979 C6.44777161 25.40414459 6.10361206 24.49874939 5.74902344 23.56591797 C5.44655701 22.76636688 5.14409058 21.9668158 4.8324585 21.14303589 C4.20515165 19.32927235 4.20515165 19.32927235 3.0625 18.3125 C3.0625 38.4425 3.0625 58.5725 3.0625 79.3125 C-2.2175 79.3125 -7.4975 79.3125 -12.9375 79.3125 C-13.00531127 70.01122829 -13.06033651 60.71012112 -13.09293652 51.40865803 C-13.10858389 47.08948383 -13.1298051 42.77048772 -13.16381836 38.45141602 C-13.1964451 34.28225647 -13.21436 30.11326808 -13.22213173 25.94399071 C-13.2276693 24.35438531 -13.23848291 22.76478915 -13.25469017 21.17525673 C-13.276509 18.94646684 -13.27946514 16.71838168 -13.27807617 14.48950195 C-13.28473801 13.22153275 -13.29139984 11.95356354 -13.29826355 10.64717102 C-12.90911326 7.05011081 -12.08507502 5.18842584 -9.9375 2.3125 C-6.76007812 0.05072227 -3.83468053 0.01450699 0 0 Z " fill="#FFFFFF" transform="translate(485.9375,1761.6875)"/>
<path d="M0 0 C0.85207031 -0.03738281 1.70414063 -0.07476563 2.58203125 -0.11328125 C6.14659762 0.46923409 7.59620668 1.80782868 10.1875 4.3125 C11.56738281 7.46704102 11.56738281 7.46704102 12.640625 11.25390625 C12.94253754 12.29388512 12.94253754 12.29388512 13.25054932 13.35487366 C13.91578474 15.66902439 14.55294216 17.98976222 15.1875 20.3125 C15.65641851 21.99215952 16.12583151 23.67168107 16.59570312 25.35107422 C18.32357413 31.56778033 20.00519666 37.79683345 21.68701172 44.02612305 C22.40840202 46.69394612 23.13373709 49.36067349 23.859375 52.02734375 C24.07914001 52.84694077 24.29890503 53.66653778 24.52532959 54.51097107 C25.2781339 58.20947533 25.2781339 58.20947533 27.1875 61.3125 C27.37320053 60.60506149 27.55890106 59.89762299 27.75022888 59.16874695 C29.50015322 52.50300716 31.25102402 45.83751664 33.00295925 39.17230511 C33.90361904 35.74562244 34.80391212 32.3188443 35.70336914 28.8918457 C36.73735437 24.95234987 37.77293086 21.01327388 38.80859375 17.07421875 C39.13153915 15.84289719 39.45448456 14.61157562 39.78721619 13.34294128 C40.08745193 12.20198502 40.38768768 11.06102875 40.69702148 9.88549805 C40.96127426 8.879561 41.22552704 7.87362396 41.49778748 6.83720398 C42.00528466 4.97950223 42.57851649 3.13945053 43.1875 1.3125 C48.4675 1.3125 53.7475 1.3125 59.1875 1.3125 C57.67277239 9.47557519 55.62325569 17.42114414 53.4140625 25.421875 C53.14297228 26.40636501 53.14297228 26.40636501 52.86640549 27.41074371 C51.91255291 30.87468906 50.95467071 34.3374881 49.99316406 37.79931641 C49.00609592 41.35604751 48.03252309 44.91632745 47.06197548 48.47759628 C46.30741873 51.23696136 45.54314218 53.99356653 44.77622604 56.74951935 C44.23772639 58.69406176 43.70940533 60.64141378 43.18130493 62.58880615 C39.28494863 76.47077379 39.28494863 76.47077379 33.875 79.6875 C28.7266587 80.88478868 23.81675109 81.06502768 19.1875 78.3125 C15.60464454 73.7004136 14.02425491 69.28895055 12.53125 63.6875 C12.30223999 62.86354736 12.07322998 62.03959473 11.83728027 61.19067383 C11.1105181 58.56729403 10.39867963 55.94014192 9.6875 53.3125 C9.21064229 51.57914977 8.73278595 49.84607395 8.25390625 48.11328125 C7.32611389 44.75254731 6.40338561 41.39048892 5.484375 38.02734375 C3.77090982 31.77396078 1.98323293 25.54267637 0.1875 19.3125 C0.01068192 19.97569244 -0.16613617 20.63888489 -0.34831238 21.32217407 C-2.19550952 28.23803577 -4.06465796 35.14769512 -5.9465332 42.05419922 C-6.64731218 44.63047336 -7.33888169 47.20872944 -8.02661133 49.78857422 C-9.01736727 53.50122644 -10.02817242 57.20791937 -11.04296875 60.9140625 C-11.34526901 62.06427887 -11.64756927 63.21449524 -11.95903015 64.39956665 C-13.65821675 70.5217732 -15.18151079 74.87947311 -19.8125 79.3125 C-21.6875 80.1875 -21.6875 80.1875 -23.8125 80.3125 C-24.92625 80.395 -26.04 80.4775 -27.1875 80.5625 C-31.23174377 80.28358664 -33.43802589 79.53658521 -36.8125 77.3125 C-39.46312343 73.55743484 -40.68941243 69.85462643 -41.8972168 65.44262695 C-42.08297272 64.77211304 -42.26872864 64.10159912 -42.46011353 63.4107666 C-43.06796136 61.20937473 -43.66499275 59.00521142 -44.26171875 56.80078125 C-44.68282967 55.26556076 -45.10453554 53.73050336 -45.52680969 52.19560242 C-46.40797863 48.98670256 -47.28419853 45.77650865 -48.15649414 42.56518555 C-49.27604425 38.44391058 -50.40443025 34.32512324 -51.53605938 30.20715046 C-52.40560655 27.04142967 -53.27226445 23.87492439 -54.13785744 20.70812035 C-54.55323601 19.18849612 -54.96910674 17.66900632 -55.38547325 16.14965248 C-55.96498873 14.03188459 -56.54103102 11.91320456 -57.1159668 9.79418945 C-57.44445114 8.58793411 -57.77293549 7.38167877 -58.1113739 6.13887024 C-58.8125 3.3125 -58.8125 3.3125 -58.8125 1.3125 C-53.5325 1.3125 -48.2525 1.3125 -42.8125 1.3125 C-36.89522323 21.15702574 -31.89818711 41.24289975 -26.8125 61.3125 C-25.21305032 58.35090699 -24.21979486 55.50780799 -23.36376953 52.25610352 C-22.96292648 50.74917686 -22.96292648 50.74917686 -22.5539856 49.21180725 C-22.12894241 47.59295876 -22.12894241 47.59295876 -21.6953125 45.94140625 C-21.08250313 43.65286838 -20.46920681 41.36446086 -19.85546875 39.07617188 C-18.89353879 35.47200662 -17.93538643 31.86697029 -16.98583984 28.25952148 C-16.06668334 24.77543759 -15.13216216 21.29576781 -14.1953125 17.81640625 C-13.91599884 16.73919815 -13.63668518 15.66199005 -13.34890747 14.55213928 C-10.79732433 5.15141408 -10.79732433 5.15141408 -6.8125 1.3125 C-4.39739385 0.10494692 -2.69511951 0.07677252 0 0 Z " fill="#FFFFFF" transform="translate(1438.8125,1761.6875)"/>
<path d="M0 0 C1.00139008 -0.00953201 2.00278015 -0.01906403 3.03451538 -0.02888489 C4.64865829 -0.02751778 4.64865829 -0.02751778 6.29541016 -0.02612305 C7.40751862 -0.03040817 8.51962708 -0.0346933 9.66543579 -0.03910828 C12.01734741 -0.04484977 14.36927678 -0.04535317 16.72119141 -0.04101562 C20.31394891 -0.03785982 23.9058797 -0.06130363 27.49853516 -0.08666992 C29.78499245 -0.08894338 32.07145196 -0.0896462 34.35791016 -0.08862305 C35.42995697 -0.09783279 36.50200378 -0.10704254 37.60653687 -0.11653137 C43.13130115 -0.08238154 47.22433174 0.0877466 51.95947266 3.2746582 C58.5442855 10.22529399 59.22434327 18.19746145 59.11181641 27.3996582 C58.72158945 34.76394133 57.47153959 41.33772803 52.95947266 47.2746582 C47.54718776 51.38398562 41.58043276 52.00330738 34.95947266 52.2746582 C38.44561528 55.85884859 41.9710192 59.33583346 45.77197266 62.5871582 C50.73701269 66.8791378 55.58834204 71.37505072 59.95947266 76.2746582 C59.95947266 76.9346582 59.95947266 77.5946582 59.95947266 78.2746582 C53.07622 80.09258272 46.74145422 80.85896326 39.95947266 78.2746582 C34.63425087 74.7781506 30.21323316 70.10958566 25.83447266 65.5246582 C25.25658997 64.91986633 24.67870728 64.31507446 24.08331299 63.69195557 C12.2642049 51.16961455 12.2642049 51.16961455 11.58447266 44.7121582 C11.95947266 41.2746582 11.95947266 41.2746582 13.66430664 39.58520508 C16.34863788 38.05244366 17.98268859 37.89313184 21.05712891 37.8684082 C22.02328125 37.84649414 22.98943359 37.82458008 23.98486328 37.80200195 C26.0135088 37.78373762 28.04215463 37.76550859 30.07080078 37.74731445 C31.03566406 37.72540039 32.00052734 37.70348633 32.99462891 37.6809082 C33.87513916 37.67381836 34.75564941 37.66672852 35.6628418 37.65942383 C38.41684291 37.19803276 39.28297216 36.46616211 40.95947266 34.2746582 C42.86680011 28.20588903 42.81769327 20.99109942 39.95947266 15.2746582 C36.08268563 13.22367628 32.75590875 13.02846809 28.41650391 13.04418945 C27.17835937 13.04612305 25.94021484 13.04805664 24.66455078 13.05004883 C22.73772461 13.06841797 22.73772461 13.06841797 20.77197266 13.0871582 C18.82774414 13.088125 18.82774414 13.088125 16.84423828 13.08911133 C10.71948563 12.78347735 10.71948563 12.78347735 4.95947266 14.2746582 C4.62947266 35.3946582 4.29947266 56.5146582 3.95947266 78.2746582 C-1.32052734 78.2746582 -6.60052734 78.2746582 -12.04052734 78.2746582 C-12.10842871 69.39907963 -12.16341565 60.52367488 -12.19596386 51.64789486 C-12.211589 47.52606965 -12.23276924 43.40443208 -12.2668457 39.28271484 C-12.29955221 35.30157704 -12.31740405 31.32061921 -12.32515907 27.33935738 C-12.33068239 25.82397188 -12.34146804 24.30859572 -12.35771751 22.79328728 C-12.37964277 20.66308538 -12.38248811 18.53361772 -12.38110352 16.40332031 C-12.38776535 15.19308701 -12.39442719 13.9828537 -12.40129089 12.73594666 C-11.96353868 8.5360027 -11.05827615 5.98571097 -9.04052734 2.2746582 C-6.15534043 0.08613975 -3.55645619 0.01864099 0 0 Z " fill="#FFFFFF" transform="translate(1611.04052734375,1762.725341796875)"/>
<path d="M0 0 C6.6557456 5.73527015 8.36822586 14.35281005 9.12548828 22.81933594 C9.23588515 26.09955864 9.24587057 29.36276333 9.2109375 32.64453125 C9.22253906 33.73830078 9.23414063 34.83207031 9.24609375 35.95898438 C9.20868123 46.44072481 7.76194915 56.30014945 0.33984375 64.16796875 C-9.29051642 73.28678554 -22.65875637 72.92660358 -35.16015625 72.73046875 C-45.98050088 72.41668647 -55.92087404 70.48327263 -64.0390625 62.89453125 C-72.99959038 48.92664956 -73.03189303 30.61813381 -69.9140625 14.70703125 C-67.86498312 6.60557853 -64.02230686 1.28403245 -57.1640625 -3.41796875 C-41.33422297 -11.31757919 -14.25904484 -10.57846106 0 0 Z M-50.1640625 10.58203125 C-56.68191888 20.42189185 -56.59139336 34.39647181 -54.4140625 45.70703125 C-52.98370492 50.91194355 -50.86083655 54.55689693 -46.1640625 57.39453125 C-37.28317183 60.90988381 -24.88831751 61.27977089 -15.9296875 57.62109375 C-11.23982813 54.86113226 -8.95860327 50.9374852 -7.55883789 45.70507812 C-6.75853792 41.40117673 -6.83675902 37.0710958 -6.8515625 32.70703125 C-6.83544922 31.76472656 -6.81933594 30.82242187 -6.80273438 29.8515625 C-6.79752112 22.31320122 -7.72288535 15.68298601 -12.4765625 9.64453125 C-22.07014583 2.28201381 -41.11473972 2.19485404 -50.1640625 10.58203125 Z " fill="#FFFFFF" transform="translate(1198.1640625,1769.41796875)"/>
<path d="M0 0 C0.84848511 -0.01283524 1.69697021 -0.02567047 2.57116699 -0.03889465 C3.49192017 -0.04628159 4.41267334 -0.05366852 5.36132812 -0.0612793 C6.31140747 -0.06935104 7.26148682 -0.07742279 8.24035645 -0.08573914 C10.25787528 -0.09959073 12.27541766 -0.11030805 14.29296875 -0.11816406 C17.35267997 -0.13527492 20.41128169 -0.1791388 23.47070312 -0.22338867 C25.43423687 -0.23352476 27.39777979 -0.24203799 29.36132812 -0.2487793 C30.26588745 -0.26628738 31.17044678 -0.28379547 32.10241699 -0.30183411 C39.87510718 -0.27580747 46.70277886 1.54195039 52.76757812 6.55200195 C53.46882812 7.41825195 54.17007813 8.28450195 54.89257812 9.17700195 C55.59382812 10.02262695 56.29507813 10.86825195 57.01757812 11.73950195 C64.21765932 24.93965082 63.88122993 43.71386237 60.76757812 58.11450195 C58.43820822 65.44770351 55.07446563 71.2381001 48.33007812 75.17700195 C42.20062094 78.32367516 36.17501888 78.35826061 29.42773438 78.4152832 C28.06134071 78.42739082 28.06134071 78.42739082 26.66734314 78.43974304 C24.74512614 78.45353937 22.8228851 78.46428132 20.90063477 78.47216797 C18.93864749 78.48371385 16.97669226 78.50420658 15.01489258 78.53369141 C12.17312375 78.57637636 9.33228399 78.59253522 6.49023438 78.6027832 C5.18216576 78.62904533 5.18216576 78.62904533 3.84767151 78.65583801 C-1.76337951 78.63592304 -4.80050378 77.84687021 -9.10742188 74.17700195 C-10.50008841 71.39166888 -10.25781529 69.08711369 -10.28442383 65.97070312 C-10.29725906 64.66562302 -10.3100943 63.36054291 -10.32331848 62.01591492 C-10.331486 60.58393736 -10.33892971 59.15195553 -10.34570312 57.7199707 C-10.34977865 56.99989649 -10.35385418 56.27982227 -10.35805321 55.53792763 C-10.37891496 51.72613435 -10.39321578 47.91437708 -10.40258789 44.10253906 C-10.41364848 40.16811356 -10.4480432 36.23425425 -10.48775959 32.3000288 C-10.51392458 29.27251647 -10.5222796 26.24513902 -10.52586937 23.21752357 C-10.53073626 21.76746106 -10.54235333 20.3174046 -10.56090736 18.86745262 C-10.58528984 16.83560207 -10.58191488 14.80347619 -10.57739258 12.77148438 C-10.58325882 11.61613693 -10.58912506 10.46078949 -10.59516907 9.27043152 C-10.00351118 5.51797116 -8.73236663 3.87048552 -6.10742188 1.17700195 C-3.83233791 0.03945997 -2.52850888 0.03331919 0 0 Z M5.89257812 13.17700195 C4.70411596 15.55392628 4.75962062 17.01886207 4.74731445 19.67089844 C4.7409346 20.60203964 4.73455475 21.53318085 4.72798157 22.49253845 C4.72686874 23.50087234 4.72575592 24.50920624 4.72460938 25.5480957 C4.72128098 26.5813649 4.71795258 27.61463409 4.71452332 28.67921448 C4.70945433 30.8673559 4.70711498 33.05550506 4.70727539 35.24365234 C4.70508939 38.59721571 4.68693459 41.95044998 4.66796875 45.30395508 C4.66503478 47.42700082 4.66305001 49.55004814 4.66210938 51.6730957 C4.65492386 52.67940536 4.64773834 53.68571503 4.64033508 54.72251892 C4.64341171 55.65681229 4.64648834 56.59110565 4.6496582 57.55371094 C4.64823318 58.37596664 4.64680817 59.19822235 4.64533997 60.0453949 C4.76342505 62.47634298 4.76342505 62.47634298 6.89257812 65.17700195 C9.50584203 65.64386284 9.50584203 65.64386284 12.56445312 65.57543945 C14.27375 65.58124023 14.27375 65.58124023 16.01757812 65.5871582 C17.81195312 65.56975586 17.81195312 65.56975586 19.64257812 65.55200195 C20.82335937 65.56360352 22.00414062 65.57520508 23.22070312 65.5871582 C30.98424666 65.56093002 35.9598288 65.10975127 41.64257812 59.42700195 C47.65779458 50.73835597 46.7525058 39.31111293 45.89257812 29.17700195 C44.81226601 23.78128091 43.27970277 19.7567828 39.64257812 15.61450195 C32.85892745 12.06850273 26.06383184 11.88456371 18.58007812 11.98950195 C17.24106445 11.99046875 17.24106445 11.99046875 15.875 11.99145508 C10.80369782 12.01678963 10.80369782 12.01678963 5.89257812 13.17700195 Z " fill="#FFFFFF" transform="translate(682.107421875,1762.822998046875)"/>
<path d="M0 0 C0.96069397 0.00007553 1.92138794 0.00015106 2.91119385 0.00022888 C3.94049011 0.00539017 4.96978638 0.01055145 6.03027344 0.01586914 C7.61989899 0.01799156 7.61989899 0.01799156 9.24163818 0.02015686 C12.62433705 0.02575158 16.00696959 0.03830314 19.38964844 0.05102539 C21.68391831 0.05604107 23.97818923 0.06060386 26.27246094 0.06469727 C31.89488231 0.07571928 37.51725413 0.09298032 43.13964844 0.11352539 C43.13964844 4.07352539 43.13964844 8.03352539 43.13964844 12.11352539 C42.01469971 12.13334473 40.88975098 12.15316406 39.73071289 12.17358398 C35.54657063 12.24980694 31.36276856 12.33849845 27.17895508 12.4309082 C25.37010426 12.46912906 23.56117923 12.50399389 21.75219727 12.53540039 C19.14800541 12.58120096 16.54432144 12.63917013 13.94042969 12.69946289 C13.1350325 12.7110141 12.32963531 12.72256531 11.49983215 12.73446655 C7.33594105 12.84326986 3.86767571 13.04046558 0.13964844 15.11352539 C-2.40882282 19.65645242 -1.76964295 23.28841608 -0.75878906 28.16040039 C0.43725102 30.76048752 1.50345348 31.07108712 4.13964844 32.11352539 C6.64218911 32.43808293 6.64218911 32.43808293 9.3671875 32.43237305 C10.40796448 32.45224274 11.44874146 32.47211243 12.52105713 32.49258423 C14.1962442 32.50991104 14.1962442 32.50991104 15.90527344 32.52758789 C17.62807526 32.55663712 17.62807526 32.55663712 19.38568115 32.58627319 C23.05359473 32.64604665 26.72153973 32.69244603 30.38964844 32.73852539 C32.87664128 32.77670717 35.36362093 32.81575902 37.85058594 32.85571289 C43.94683292 32.9517466 50.04314182 33.0357864 56.13964844 33.11352539 C56.13964844 36.74352539 56.13964844 40.37352539 56.13964844 44.11352539 C52.17964844 44.11352539 48.21964844 44.11352539 44.13964844 44.11352539 C44.18605469 46.00458008 44.23246094 47.89563477 44.28027344 49.84399414 C44.31779285 52.32965543 44.35419283 54.8153338 44.38964844 57.30102539 C44.43992187 59.16984375 44.43992187 59.16984375 44.49121094 61.07641602 C44.50410156 62.2784668 44.51699219 63.48051758 44.53027344 64.71899414 C44.5512207 65.8239624 44.57216797 66.92893066 44.59375 68.06738281 C44.02106525 71.90898909 42.9489784 73.45388241 40.13964844 76.11352539 C35.45868849 78.33574424 30.83692114 78.42047215 25.74121094 78.41430664 C24.55052505 78.42073433 24.55052505 78.42073433 23.33578491 78.42729187 C21.66331939 78.43301154 19.99082901 78.43355293 18.31835938 78.42919922 C15.77918392 78.42604346 13.24117983 78.44951241 10.70214844 78.47485352 C9.06933739 78.4771274 7.43652325 78.47782959 5.80371094 78.47680664 C5.05449371 78.48601639 4.30527649 78.49522614 3.53335571 78.50471497 C-3.06289709 78.44771327 -8.48684961 77.02264652 -13.73535156 72.80102539 C-17.75332206 67.71947447 -18.22348963 62.42407279 -18.23535156 56.11352539 C-18.25984375 55.42774414 -18.28433594 54.74196289 -18.30957031 54.03540039 C-18.33896138 48.901761 -17.0584964 46.06695166 -13.86035156 42.11352539 C-11.61035156 40.23852539 -11.61035156 40.23852539 -9.86035156 39.11352539 C-10.62347656 38.59790039 -11.38660156 38.08227539 -12.17285156 37.55102539 C-16.59230934 33.54267997 -17.67843937 30.37372215 -18.14550781 24.57055664 C-18.47716202 9.96335165 -18.47716202 9.96335165 -13.46582031 4.62915039 C-9.10632273 0.70008422 -5.67987155 -0.01494703 0 0 Z M-0.70678711 46.8996582 C-2.75750937 50.83530889 -3.45740398 54.87135733 -2.31738281 59.15258789 C-0.88833642 62.8190318 -0.88833642 62.8190318 2.13964844 65.11352539 C4.08695595 65.21051562 6.03758434 65.24428725 7.98730469 65.24633789 C9.73043945 65.24827148 9.73043945 65.24827148 11.50878906 65.25024414 C12.72759766 65.24637695 13.94640625 65.24250977 15.20214844 65.23852539 C16.42482422 65.24239258 17.6475 65.24625977 18.90722656 65.25024414 C20.06802734 65.24895508 21.22882812 65.24766602 22.42480469 65.24633789 C23.49609619 65.24520996 24.5673877 65.24408203 25.67114258 65.24291992 C28.08371195 65.39250285 28.08371195 65.39250285 29.13964844 64.11352539 C29.22616455 62.69782416 29.24669748 61.27793039 29.23730469 59.85961914 C29.23408203 59.00561523 29.23085938 58.15161133 29.22753906 57.27172852 C29.21916016 56.37389648 29.21078125 55.47606445 29.20214844 54.55102539 C29.19763672 53.64932617 29.193125 52.74762695 29.18847656 51.81860352 C29.17665068 49.58351225 29.16017064 47.34855102 29.13964844 45.11352539 C25.20710835 45.01457442 21.27505098 44.94202119 17.34155273 44.89379883 C15.3462583 44.86381258 13.35131261 44.81298753 11.35644531 44.76196289 C10.10283203 44.74907227 8.84921875 44.73618164 7.55761719 44.72290039 C6.40028076 44.70195313 5.24294434 44.68100586 4.05053711 44.65942383 C1.06951974 44.8381308 1.06951974 44.8381308 -0.70678711 46.8996582 Z " fill="#FFFFFF" transform="translate(940.8603515625,1762.886474609375)"/>
<path d="M0 0 C1.68128998 0.00022659 1.68128998 0.00022659 3.39654541 0.00045776 C4.60083191 0.01078033 5.80511841 0.02110291 7.04589844 0.03173828 C8.90187653 0.03598312 8.90187653 0.03598312 10.79534912 0.04031372 C14.07678885 0.04960878 17.35803098 0.06756373 20.6394043 0.08972168 C23.99102966 0.1102203 27.34266351 0.11915354 30.69433594 0.12939453 C37.26473565 0.15145051 43.83496618 0.18597846 50.40527344 0.22705078 C50.40527344 4.18705078 50.40527344 8.14705078 50.40527344 12.22705078 C49.08285645 12.25210693 47.76043945 12.27716309 46.39794922 12.30297852 C41.50396589 12.39696243 36.61012751 12.49720496 31.71630859 12.59936523 C29.59590031 12.6427483 27.47545632 12.68442086 25.35498047 12.72436523 C22.31173936 12.78198621 19.26867854 12.84570403 16.22558594 12.91064453 C15.27346222 12.92735703 14.3213385 12.94406952 13.34036255 12.96128845 C12.45960052 12.98123367 11.5788385 13.00117889 10.67138672 13.02172852 C9.89417267 13.0372728 9.11695862 13.05281708 8.31619263 13.0688324 C6.31970409 13.1148833 6.31970409 13.1148833 4.40527344 14.22705078 C4.07527344 20.16705078 3.74527344 26.10705078 3.40527344 32.22705078 C18.25527344 32.22705078 33.10527344 32.22705078 48.40527344 32.22705078 C48.40527344 36.18705078 48.40527344 40.14705078 48.40527344 44.22705078 C33.55527344 44.22705078 18.70527344 44.22705078 3.40527344 44.22705078 C3.73527344 50.82705078 4.06527344 57.42705078 4.40527344 64.22705078 C19.58527344 64.55705078 34.76527344 64.88705078 50.40527344 65.22705078 C50.40527344 69.51705078 50.40527344 73.80705078 50.40527344 78.22705078 C42.66400245 78.30121182 34.92293831 78.355659 27.18139648 78.3918457 C24.5478963 78.40693135 21.91442123 78.42740244 19.28100586 78.45336914 C15.4955424 78.48976097 11.71041117 78.50677969 7.92480469 78.52001953 C6.74755325 78.53550339 5.57030182 78.55098724 4.3573761 78.56694031 C2.70623055 78.5672802 2.70623055 78.5672802 1.02172852 78.56762695 C-0.42722054 78.57761971 -0.42722054 78.57761971 -1.90544128 78.58781433 C-6.05448794 78.031226 -8.67786508 76.14391226 -11.59472656 73.22705078 C-12.75117707 69.93108074 -12.73343864 66.73831156 -12.75585938 63.26855469 C-12.76546692 62.06695709 -12.77507446 60.8653595 -12.78497314 59.62734985 C-12.78922302 58.33251678 -12.7934729 57.03768372 -12.79785156 55.70361328 C-12.80360836 54.35606893 -12.80936602 53.00852457 -12.81512451 51.66098022 C-12.82561446 48.83827332 -12.83147035 46.01559473 -12.83496094 43.19287109 C-12.84044416 39.58602452 -12.86447652 35.97955571 -12.89293289 32.37282753 C-12.91160772 29.5897616 -12.91676741 26.80678585 -12.91829681 24.02366257 C-12.92277329 22.05061212 -12.94139402 20.07761005 -12.96026611 18.10464478 C-12.95726501 16.89674286 -12.95426392 15.68884094 -12.95117188 14.44433594 C-12.9548175 13.38606598 -12.95846313 12.32779602 -12.96221924 11.23745728 C-12.52285567 7.6383027 -11.52741597 5.2881039 -9.59472656 2.22705078 C-6.52636271 -0.04489988 -3.74464269 -0.01686776 0 0 Z " fill="#FFFFFF" transform="translate(603.5947265625,1762.77294921875)"/>
<path d="M0 0 C1.12093552 0.00015106 2.24187103 0.00030212 3.39677429 0.00045776 C4.60622208 0.01078033 5.81566986 0.02110291 7.06176758 0.03173828 C8.91986809 0.03598312 8.91986809 0.03598312 10.81550598 0.04031372 C14.10517969 0.04961892 17.39465746 0.06758287 20.68426514 0.08972168 C24.04249677 0.11019808 27.4007571 0.11931926 30.7590332 0.12939453 C37.34570846 0.1514681 43.93221557 0.18600501 50.51879883 0.22705078 C50.51879883 4.18705078 50.51879883 8.14705078 50.51879883 12.22705078 C49.2266748 12.25210693 47.93455078 12.27716309 46.60327148 12.30297852 C41.82110226 12.39696703 37.03908121 12.49720844 32.25708008 12.59936523 C30.18517517 12.64274656 28.11323376 12.68441925 26.04125977 12.72436523 C23.06751492 12.78199043 20.09395434 12.84570703 17.12036133 12.91064453 C15.72498642 12.93571327 15.72498642 12.93571327 14.30142212 12.96128845 C13.44068085 12.98123367 12.57993958 13.00117889 11.69311523 13.02172852 C10.93366608 13.0372728 10.17421692 13.05281708 9.39175415 13.0688324 C7.42764162 13.11832205 7.42764162 13.11832205 5.51879883 14.22705078 C3.60975602 19.95417921 3.920369 26.20349819 3.51879883 32.22705078 C18.69879883 32.22705078 33.87879883 32.22705078 49.51879883 32.22705078 C49.51879883 36.18705078 49.51879883 40.14705078 49.51879883 44.22705078 C34.33879883 44.22705078 19.15879883 44.22705078 3.51879883 44.22705078 C3.91527921 54.32054839 3.91527921 54.32054839 5.51879883 64.22705078 C20.69879883 64.55705078 35.87879883 64.88705078 51.51879883 65.22705078 C51.51879883 69.51705078 51.51879883 73.80705078 51.51879883 78.22705078 C43.79583839 78.30127342 36.07308616 78.35568825 28.34985352 78.3918457 C25.72318911 78.40692098 23.09654984 78.42738444 20.4699707 78.45336914 C16.69191278 78.48980654 12.91418806 78.50679016 9.13598633 78.52001953 C7.96389618 78.53550339 6.79180603 78.55098724 5.584198 78.56694031 C-4.97203159 78.56911346 -4.97203159 78.56911346 -9.48120117 75.22705078 C-11.70114321 71.84929169 -11.73936488 68.96180503 -11.75585938 64.97729492 C-11.76539139 63.71240738 -11.7749234 62.44751984 -11.78474426 61.14430237 C-11.78448282 59.76693697 -11.78354572 58.38957156 -11.78198242 57.01220703 C-11.78587123 55.59500503 -11.79020628 54.17780419 -11.79496765 52.76060486 C-11.80242258 49.79243184 -11.80214391 46.82437778 -11.796875 43.85620117 C-11.79108126 40.05866142 -11.80801203 36.26160954 -11.83121967 32.46415043 C-11.8459749 29.5378486 -11.84682631 26.61166379 -11.84370995 23.68533134 C-11.84422226 22.28553743 -11.84944321 20.88573681 -11.85952187 19.48597908 C-11.87190217 17.52609119 -11.86314295 15.56610452 -11.85351562 13.60620117 C-11.85414505 12.49241592 -11.85477448 11.37863068 -11.85542297 10.23109436 C-11.42983468 6.8147093 -10.53215529 4.97068871 -8.48120117 2.22705078 C-5.09450578 -0.03074615 -3.96429266 -0.01781705 0 0 Z " fill="#FFFFFF" transform="translate(1700.481201171875,1762.77294921875)"/>
<path d="M0 0 C1.71643456 0.00848969 1.71643456 0.00848969 3.46754456 0.01715088 C7.10509926 0.03945544 10.74165165 0.08964332 14.37890625 0.140625 C16.85219927 0.16069754 19.3255078 0.17894698 21.79882812 0.1953125 C27.84673754 0.23930125 33.89390223 0.30829002 39.94140625 0.390625 C39.94140625 4.350625 39.94140625 8.310625 39.94140625 12.390625 C38.05651489 12.42820923 38.05651489 12.42820923 36.13354492 12.46655273 C31.47621268 12.56064795 26.81902884 12.66086359 22.16186523 12.76293945 C20.14529896 12.80628029 18.12869618 12.84795598 16.11206055 12.88793945 C13.21522008 12.94566247 10.31856319 13.00935122 7.421875 13.07421875 C6.06705269 13.09928749 6.06705269 13.09928749 4.68486023 13.12486267 C3.84421524 13.14480789 3.00357025 13.16475311 2.13745117 13.18530273 C1.39798752 13.20084702 0.65852386 13.2163913 -0.10334778 13.23240662 C-2.27376085 13.32974725 -2.27376085 13.32974725 -5.05859375 14.390625 C-6.61290329 17.49924408 -6.9453162 21.04887247 -6.05859375 24.390625 C-2.21588698 27.1131281 1.91543496 28.52437452 6.3671875 29.9140625 C7.81843824 30.38256829 9.26960757 30.85132629 10.72070312 31.3203125 C12.98370255 32.04372834 15.24770641 32.76366892 17.51342773 33.47851562 C37.6609747 39.85963422 37.6609747 39.85963422 41.87890625 46.390625 C44.56233722 53.96737128 44.83841427 62.29241595 42.00390625 69.91015625 C39.30721549 74.69145993 36.26664274 76.89819836 30.94140625 78.390625 C26.84460285 78.79163486 22.7770627 78.74029439 18.6640625 78.68359375 C17.49757675 78.67934891 16.331091 78.67510406 15.1292572 78.67073059 C11.42056751 78.65400022 7.71243043 78.61635721 4.00390625 78.578125 C1.48242975 78.56307093 -1.03905531 78.54938379 -3.56054688 78.53710938 C-9.72677392 78.50411497 -15.89259028 78.45237053 -22.05859375 78.390625 C-22.05859375 74.100625 -22.05859375 69.810625 -22.05859375 65.390625 C-6.21859375 65.060625 9.62140625 64.730625 25.94140625 64.390625 C27.33391298 57.28657856 27.33391298 57.28657856 26.3203125 54.03125 C24.40680795 51.75455903 22.68131362 51.15145296 19.87890625 50.140625 C18.73164062 49.72425781 17.584375 49.30789063 16.40234375 48.87890625 C12.86230932 47.67455599 9.29871685 46.5512871 5.73046875 45.43359375 C4.62582275 45.08651367 3.52117676 44.73943359 2.38305664 44.38183594 C0.15895571 43.68830081 -2.06838758 43.00506567 -4.29907227 42.33300781 C-18.23482349 38.02455689 -18.23482349 38.02455689 -21.43359375 32.078125 C-24.45357391 25.31489211 -24.1915332 16.86204876 -22.3984375 9.78515625 C-20.58078357 5.59117554 -18.37234595 3.51651782 -14.30699158 1.25102234 C-9.71501551 -0.50619515 -4.84928847 -0.0909049 0 0 Z " fill="#FFFFFF" transform="translate(1068.05859375,1762.609375)"/>
<path d="M0 0 C0.94488281 -0.02578125 1.88976563 -0.0515625 2.86328125 -0.078125 C6.25819428 0.31630473 7.91515645 1.26530331 10.6875 3.25 C17.07654376 12.63969193 20.71705334 24.71745777 25 35.1875 C26.50305414 38.8446382 28.00913678 42.50052527 29.515625 46.15625 C29.87946793 47.04021957 30.24331085 47.92418915 30.61817932 48.83494568 C33.77453685 56.49149658 37.01521244 64.10879783 40.35083008 71.68920898 C42.6875 77.04493916 42.6875 77.04493916 42.6875 79.25 C37.0775 79.25 31.4675 79.25 25.6875 79.25 C24.51435974 76.48174812 23.34879785 73.71071514 22.1875 70.9375 C21.85363281 70.15181641 21.51976562 69.36613281 21.17578125 68.55664062 C20.85996094 67.79931641 20.54414062 67.04199219 20.21875 66.26171875 C19.92548828 65.56522217 19.63222656 64.86872559 19.33007812 64.15112305 C18.6875 62.25 18.6875 62.25 18.6875 59.25 C6.4775 59.25 -5.7325 59.25 -18.3125 59.25 C-18.6425 60.9 -18.9725 62.55 -19.3125 64.25 C-19.74619251 65.51951888 -20.21512031 66.777688 -20.72265625 68.01953125 C-20.9637915 68.61612549 -21.20492676 69.21271973 -21.45336914 69.82739258 C-21.75750732 70.56497803 -22.06164551 71.30256348 -22.375 72.0625 C-23.344375 74.434375 -24.31375 76.80625 -25.3125 79.25 C-30.9225 79.25 -36.5325 79.25 -42.3125 79.25 C-40.22932578 72.74320923 -37.82661059 66.47648541 -35.14453125 60.1953125 C-34.54677132 58.78377396 -34.54677132 58.78377396 -33.93693542 57.34371948 C-32.66950571 54.3527702 -31.3973888 51.3638425 -30.125 48.375 C-28.87624549 45.43235672 -27.62844914 42.48930934 -26.381073 39.54608154 C-25.5590316 37.60936752 -24.73492537 35.67352858 -23.90872192 33.73858643 C-21.9261388 29.09053868 -19.97340721 24.43485049 -18.09130859 19.74511719 C-17.73961105 18.87901825 -17.38791351 18.01291931 -17.02555847 17.12057495 C-16.37223553 15.50738066 -15.72864154 13.89019494 -15.09712219 12.26834106 C-12.06806698 4.83667313 -8.3550754 0.13567105 0 0 Z M-0.3125 15.25 C-3.69203988 21.7145327 -6.42728703 28.32666556 -9.0625 35.125 C-9.47371094 36.16914062 -9.88492187 37.21328125 -10.30859375 38.2890625 C-12.44541632 43.13277899 -12.44541632 43.13277899 -13.3125 48.25 C-4.4025 48.25 4.5075 48.25 13.6875 48.25 C11.44752424 40.78341412 9.06880466 33.84771655 6.125 26.6875 C5.52655273 25.19379883 5.52655273 25.19379883 4.91601562 23.66992188 C4.52994141 22.72568359 4.14386719 21.78144531 3.74609375 20.80859375 C3.39861084 19.95579834 3.05112793 19.10300293 2.69311523 18.22436523 C1.84865654 16.08306545 1.84865654 16.08306545 -0.3125 15.25 Z " fill="#FFFFFF" transform="translate(1544.3125,1761.75)"/>
<path d="M0 0 C0.91265625 -0.06058594 1.8253125 -0.12117188 2.765625 -0.18359375 C7.17225836 0.73349356 9.73893176 3.16021662 12.75 6.4375 C14.50711734 9.2993694 15.72877754 12.2873706 16.94921875 15.41015625 C17.30684799 16.27870743 17.66447723 17.14725861 18.03294373 18.04212952 C19.18606847 20.85436472 20.31188026 23.67665765 21.4375 26.5 C22.22652054 28.43873501 23.0173854 30.3767204 23.81005859 32.31396484 C25.39211845 36.18715819 26.96420917 40.06415239 28.52783203 43.94482422 C30.51666019 48.8738457 32.54188451 53.78669516 34.58984375 58.69140625 C34.87605087 59.37741409 35.162258 60.06342194 35.45713806 60.7702179 C36.00291367 62.07797919 36.54882172 63.38568522 37.09487915 64.69332886 C38.32038039 67.62963232 39.54147758 70.56769987 40.7578125 73.5078125 C41.14598145 74.44383301 41.53415039 75.37985352 41.93408203 76.34423828 C42.75 78.4375 42.75 78.4375 42.75 79.4375 C37.14 79.4375 31.53 79.4375 25.75 79.4375 C23.11 73.1675 20.47 66.8975 17.75 60.4375 C5.87 60.1075 -6.01 59.7775 -18.25 59.4375 C-19.24 62.7375 -20.23 66.0375 -21.25 69.4375 C-22.49674047 72.81495747 -23.87145077 76.10996738 -25.25 79.4375 C-30.86 79.4375 -36.47 79.4375 -42.25 79.4375 C-40.22450889 73.1435744 -37.94086844 67.05077553 -35.37109375 60.9609375 C-35.00247223 60.08031647 -34.63385071 59.19969543 -34.25405884 58.29238892 C-33.06885754 55.46420982 -31.87860887 52.63819565 -30.6875 49.8125 C-29.87098534 47.87110512 -29.05449779 45.92969883 -28.23803711 43.98828125 C-26.26390633 39.29843498 -24.2841619 34.61098538 -22.30163574 29.92468262 C-21.35858455 27.69430908 -20.41759674 25.46308173 -19.47753906 23.23144531 C-18.09787932 19.96299709 -16.70845808 16.69901286 -15.3125 13.4375 C-14.93085693 12.53306152 -14.54921387 11.62862305 -14.15600586 10.69677734 C-13.6321228 9.48562256 -13.6321228 9.48562256 -13.09765625 8.25 C-12.80898682 7.57582031 -12.52031738 6.90164063 -12.22290039 6.20703125 C-9.39717841 1.06754997 -5.59731845 0.25797697 0 0 Z M-0.25 15.4375 C-3.51332194 21.74708807 -6.31428873 28.17569374 -9 34.75 C-9.41121094 35.73806641 -9.82242188 36.72613281 -10.24609375 37.74414062 C-10.63410156 38.69095703 -11.02210938 39.63777344 -11.421875 40.61328125 C-11.7734668 41.46833252 -12.12505859 42.32338379 -12.48730469 43.2043457 C-13.4116013 45.51736397 -13.4116013 45.51736397 -13.25 48.4375 C-4.34 48.4375 4.57 48.4375 13.75 48.4375 C11.38551129 41.34403386 8.89166855 34.39863863 6.1875 27.4375 C5.78853516 26.38949219 5.38957031 25.34148437 4.97851562 24.26171875 C4.59244141 23.26785156 4.20636719 22.27398438 3.80859375 21.25 C3.46111084 20.34894531 3.11362793 19.44789062 2.75561523 18.51953125 C1.93259117 16.27425432 1.93259117 16.27425432 -0.25 15.4375 Z " fill="#FFFFFF" transform="translate(833.25,1761.5625)"/>
<path d="M0 0 C1.12101105 0.00007553 2.24202209 0.00015106 3.39700317 0.00022888 C4.61161224 0.00539017 5.82622131 0.01055145 7.07763672 0.01586914 C8.31778534 0.01728409 9.55793396 0.01869904 10.83566284 0.02015686 C14.13350555 0.02481443 17.43129968 0.033801 20.72912598 0.04486084 C24.09398808 0.05508808 27.4588573 0.0596573 30.82373047 0.06469727 C37.42661661 0.07574271 44.02946097 0.09301568 50.63232422 0.11352539 C50.63232422 4.07352539 50.63232422 8.03352539 50.63232422 12.11352539 C49.3402002 12.13858154 48.04807617 12.1636377 46.71679688 12.18945312 C41.93462765 12.28344164 37.1526066 12.38368305 32.37060547 12.48583984 C30.29870056 12.52922117 28.22675915 12.57089385 26.15478516 12.61083984 C23.18104031 12.66846504 20.20747973 12.73218164 17.23388672 12.79711914 C15.83851181 12.82218788 15.83851181 12.82218788 14.41494751 12.84776306 C13.55420624 12.86770828 12.69346497 12.8876535 11.80664062 12.90820312 C11.04719147 12.92374741 10.28774231 12.93929169 9.50527954 12.95530701 C7.54116701 13.00479666 7.54116701 13.00479666 5.63232422 14.11352539 C5.30232422 20.05352539 4.97232422 25.99352539 4.63232422 32.11352539 C15.85232422 32.11352539 27.07232422 32.11352539 38.63232422 32.11352539 C38.63232422 36.40352539 38.63232422 40.69352539 38.63232422 45.11352539 C27.41232422 45.11352539 16.19232422 45.11352539 4.63232422 45.11352539 C4.63232422 56.00352539 4.63232422 66.89352539 4.63232422 78.11352539 C-0.64767578 78.11352539 -5.92767578 78.11352539 -11.36767578 78.11352539 C-11.4581471 68.9599153 -11.53148957 59.80660354 -11.57492447 50.65264702 C-11.59577406 46.4018069 -11.62404312 42.15128929 -11.66943359 37.90063477 C-11.71298596 33.79629484 -11.73683266 29.69226456 -11.74718475 25.58771133 C-11.75455935 24.02403007 -11.76896044 22.46036522 -11.79059601 20.89681625 C-11.8197564 18.70159413 -11.82362675 16.50764138 -11.82177734 14.31225586 C-11.83065979 13.06427216 -11.83954224 11.81628845 -11.84869385 10.53048706 C-11.27575935 6.46058749 -9.92093445 4.29512012 -7.36767578 1.11352539 C-4.77439735 -0.18311382 -2.9035951 -0.0065103 0 0 Z " fill="#FFFFFF" transform="translate(1237.36767578125,1762.886474609375)"/>
<path d="M0 0 C25.08 0 50.16 0 76 0 C76 3.96 76 7.92 76 12 C66.1 12 56.2 12 46 12 C46 33.78 46 55.56 46 78 C40.72 78 35.44 78 30 78 C30 56.22 30 34.44 30 12 C20.1 12 10.2 12 0 12 C0 8.04 0 4.08 0 0 Z " fill="#FFFFFF" transform="translate(1297,1763)"/>
<path d="M0 0 C5.28 0 10.56 0 16 0 C16 25.74 16 51.48 16 78 C10.72 78 5.44 78 0 78 C0 52.26 0 26.52 0 0 Z " fill="#FFFFFF" transform="translate(763,1763)"/>
<path d="M0 0 C5.22654901 1.47642627 8.16826439 4.82231936 11.8125 8.625 C12.7087207 9.54152344 12.7087207 9.54152344 13.62304688 10.4765625 C15.08895106 11.97764839 16.54542993 13.48792862 18 15 C17.67 15.99 17.34 16.98 17 18 C14.16266225 15.19151503 11.33081251 12.37756077 8.5 9.5625 C7.68917969 8.76005859 6.87835937 7.95761719 6.04296875 7.13085938 C5.27597656 6.36708984 4.50898437 5.60332031 3.71875 4.81640625 C3.00654297 4.10943604 2.29433594 3.40246582 1.56054688 2.67407227 C0 1 0 1 0 0 Z " fill="#79157C" transform="translate(773,672)"/>
<path d="M0 0 C0.33 0 0.66 0 1 0 C1.10466648 8.07094823 1.03387512 15.9874678 0 24 C-0.99 24.33 -1.98 24.66 -3 25 C-2.86722656 23.94941406 -2.73445313 22.89882813 -2.59765625 21.81640625 C-1.68232608 14.5491346 -0.78035119 7.28327778 0 0 Z " fill="#6ED8FF" transform="translate(1562,868)"/>
<path d="M0 0 C3.36591866 1.44253657 5.51047079 3.33264727 8 6 C7.67 6.99 7.34 7.98 7 9 C5.82737096 7.88121617 4.66204862 6.75476949 3.5 5.625 C2.8503125 4.99851562 2.200625 4.37203125 1.53125 3.7265625 C0 2 0 2 0 0 Z " fill="#470C6F" transform="translate(783,681)"/>
</svg>
